<?xml version="1.0" encoding="utf-8"?>
<!-- Generator: Adobe Illustrator 24.3.0, SVG Export Plug-In . SVG Version: 6.00 Build 0)  -->
<svg version="1.1" id="Layer_1" xmlns="http://www.w3.org/2000/svg" xmlns:xlink="http://www.w3.org/1999/xlink" x="0px" y="0px"
	 viewBox="0 0 1080 524.94" style="enable-background:new 0 0 1080 524.94;" xml:space="preserve">
<style type="text/css">
	.st0{fill:#F26722;}
	.st1{fill:#58595B;}
	.st2{fill:#FFFFFF;}
</style>
<path class="st0" d="M1587.3-1184.57h37.09v238.8h-41.13v-172.69l-51.98,63.58h-8.08l-52.48-63.84v172.94h-41.13v-238.8h37.09
	l60.31,75.19L1587.3-1184.57z"/>
<path class="st0" d="M1725.57-1127.67c9.92,5.13,17.54,12.37,22.84,21.7c5.3,9.34,7.95,20.23,7.95,32.68c0,4.04-0.42,9-1.26,14.89
	h-91.6c1.18,6.4,4.63,11.57,10.35,15.52c5.72,3.95,13.03,5.93,21.95,5.93c6.22,0,12.28-0.92,18.17-2.78
	c5.89-1.85,10.93-4.46,15.14-7.82l20.69,22.2c-7.06,6.56-15.43,11.61-25.11,15.14c-9.68,3.53-19.98,5.3-30.91,5.3
	c-14.47,0-27-2.65-37.6-7.95c-10.6-5.3-18.76-12.82-24.48-22.58c-5.72-9.76-8.58-21.28-8.58-34.57c0-12.78,2.82-24.14,8.45-34.06
	c5.63-9.92,13.5-17.62,23.59-23.09c10.09-5.46,21.78-8.2,35.07-8.2C1703.87-1135.36,1715.65-1132.8,1725.57-1127.67z
	 M1672.21-1098.02c-4.96,4.04-7.78,9.68-8.45,16.91h55.01c-0.5-7.23-3.15-12.87-7.95-16.91c-4.8-4.04-11.23-6.06-19.3-6.06
	C1683.6-1104.08,1677.17-1102.06,1672.21-1098.02z"/>
<path class="st0" d="M1867-1120.23c9.17,10.09,13.75,24.06,13.75,41.89v70.4h-39.62v-68.13c0-8.08-2.02-14.38-6.06-18.93
	c-4.04-4.54-9.59-6.81-16.65-6.81c-7.74,0-13.97,2.61-18.67,7.82c-4.71,5.22-7.07,12.03-7.07,20.44v65.61h-39.62v-124.65h34.32
	l2.52,14.64c4.88-5.55,10.72-9.84,17.54-12.87c6.81-3.03,14.34-4.54,22.58-4.54C1845.51-1135.36,1857.83-1130.32,1867-1120.23z"/>
<path class="st0" d="M2107.59-1132.59h42.9l-78.36,186.82h-42.14l24.86-63.94l-48.45-122.88h42.64l14.38,39.36l13.62,40.62
	l14.64-40.62L2107.59-1132.59z"/>
<g>
	<path class="st1" d="M1668.54-965.21c-2.21-0.94-5.3-1.82-9.27-2.61c-3.21-0.64-5.73-1.33-7.54-2.07
		c-1.81-0.74-3.12-1.62-3.91-2.67c-0.79-1.04-1.19-2.35-1.19-3.94c0-2.42,1.12-4.35,3.37-5.81c2.25-1.46,5.24-2.18,8.99-2.18
		c2.57,0,4.94,0.45,7.11,1.33c2.17,0.89,3.98,2.15,5.41,3.77l1.59-1.76c-1.66-1.85-3.7-3.26-6.12-4.22
		c-2.42-0.96-5.07-1.44-7.94-1.44c-2.95,0-5.55,0.42-7.8,1.27c-2.25,0.85-3.99,2.06-5.21,3.63c-1.23,1.57-1.84,3.37-1.84,5.41
		s0.47,3.74,1.42,5.1c0.94,1.36,2.46,2.52,4.56,3.46c2.1,0.94,4.96,1.78,8.59,2.49c3.55,0.68,6.28,1.4,8.19,2.15
		c1.91,0.76,3.27,1.66,4.08,2.72c0.81,1.06,1.22,2.4,1.22,4.02c0,2.57-1.16,4.6-3.49,6.1c-2.33,1.49-5.49,2.24-9.5,2.24
		c-2.91,0-5.71-0.62-8.39-1.87c-2.68-1.25-4.67-2.85-5.95-4.82l-1.7,1.7c1.62,2.23,3.89,4.02,6.8,5.36
		c2.91,1.34,5.99,2.01,9.24,2.01c4.76,0,8.53-0.96,11.31-2.89c2.78-1.93,4.17-4.55,4.17-7.88c0-2.08-0.48-3.8-1.45-5.16
		C1672.34-963.12,1670.75-964.27,1668.54-965.21z"/>
	<polygon class="st1" points="1698.45,-983.7 1713.07,-983.7 1713.07,-946.45 1715.51,-946.45 1715.51,-983.7 1730.14,-983.7 
		1730.14,-986.13 1698.45,-986.13 	"/>
	<path class="st1" d="M1785.12-961.64c0,2.65-0.55,4.98-1.64,7c-1.1,2.02-2.63,3.6-4.59,4.74c-1.97,1.13-4.22,1.7-6.75,1.7
		c-2.53,0-4.78-0.57-6.75-1.7c-1.97-1.13-3.5-2.71-4.59-4.74c-1.1-2.02-1.64-4.35-1.64-7v-24.49h-2.5v24.49
		c0,3.1,0.65,5.85,1.96,8.25s3.13,4.26,5.47,5.58c2.34,1.33,5.03,1.98,8.05,1.98c3.02,0,5.71-0.66,8.05-1.98
		c2.34-1.32,4.17-3.18,5.47-5.58c1.3-2.4,1.96-5.15,1.96-8.25v-24.49h-2.5V-961.64z"/>
	<path class="st1" d="M1842.78-983.61c-3.06-1.68-6.56-2.52-10.49-2.52h-13.26v39.68h13.26c3.93,0,7.43-0.84,10.49-2.52
		c3.06-1.68,5.44-4.03,7.15-7.03c1.7-3.01,2.55-6.44,2.55-10.29c0-3.86-0.85-7.29-2.55-10.29
		C1848.22-979.58,1845.84-981.93,1842.78-983.61z M1847.74-957.28c-1.49,2.65-3.58,4.71-6.26,6.18c-2.68,1.47-5.74,2.21-9.18,2.21
		h-10.77v-34.81h10.77c3.4,0,6.44,0.74,9.13,2.21c2.68,1.47,4.78,3.53,6.29,6.18c1.51,2.65,2.27,5.65,2.27,9.02
		C1849.98-962.93,1849.23-959.92,1847.74-957.28z"/>
	<rect x="1881.73" y="-986.13" class="st1" width="2.49" height="39.68"/>
	<path class="st1" d="M1943.83-984.2c-3.04-1.74-6.49-2.61-10.35-2.61c-3.85,0-7.3,0.87-10.35,2.61c-3.04,1.74-5.41,4.17-7.11,7.28
		c-1.7,3.12-2.55,6.66-2.55,10.63c0,3.97,0.85,7.51,2.55,10.63c1.7,3.12,4.07,5.55,7.11,7.29s6.49,2.61,10.35,2.61
		c3.86,0,7.3-0.87,10.35-2.61s5.41-4.17,7.11-7.29c1.7-3.12,2.55-6.66,2.55-10.63c0-3.97-0.85-7.51-2.55-10.63
		C1949.24-980.04,1946.87-982.47,1943.83-984.2z M1948.76-956.88c-1.49,2.76-3.57,4.9-6.24,6.44s-5.68,2.3-9.04,2.3
		c-3.36,0-6.38-0.77-9.04-2.3c-2.67-1.53-4.74-3.68-6.24-6.44c-1.49-2.76-2.24-5.9-2.24-9.41c0-3.52,0.74-6.65,2.24-9.41
		c1.49-2.76,3.57-4.9,6.24-6.44c2.66-1.53,5.68-2.29,9.04-2.29c3.36,0,6.38,0.76,9.04,2.29c2.67,1.53,4.74,3.68,6.24,6.44
		c1.49,2.76,2.24,5.9,2.24,9.41C1951-962.78,1950.25-959.64,1948.76-956.88z"/>
	<path class="st1" d="M2009.93-961.76c-0.96-1.36-2.55-2.51-4.76-3.46c-2.21-0.94-5.3-1.82-9.27-2.61
		c-3.21-0.64-5.72-1.33-7.54-2.07c-1.81-0.74-3.12-1.62-3.91-2.67c-0.79-1.04-1.19-2.35-1.19-3.94c0-2.42,1.12-4.35,3.37-5.81
		c2.25-1.46,5.24-2.18,8.98-2.18c2.57,0,4.94,0.45,7.11,1.33c2.17,0.89,3.98,2.15,5.41,3.77l1.59-1.76
		c-1.66-1.85-3.71-3.26-6.12-4.22c-2.42-0.96-5.07-1.44-7.94-1.44c-2.95,0-5.55,0.42-7.79,1.27c-2.25,0.85-3.99,2.06-5.21,3.63
		c-1.23,1.57-1.84,3.37-1.84,5.41s0.47,3.74,1.42,5.1c0.94,1.36,2.47,2.52,4.56,3.46c2.1,0.94,4.96,1.78,8.59,2.49
		c3.55,0.68,6.28,1.4,8.19,2.15c1.91,0.76,3.27,1.66,4.08,2.72c0.81,1.06,1.22,2.4,1.22,4.02c0,2.57-1.16,4.6-3.48,6.1
		c-2.33,1.49-5.49,2.24-9.5,2.24c-2.91,0-5.71-0.62-8.39-1.87c-2.68-1.25-4.67-2.85-5.95-4.82l-1.7,1.7
		c1.62,2.23,3.89,4.02,6.8,5.36c2.91,1.34,5.99,2.01,9.24,2.01c4.76,0,8.53-0.96,11.31-2.89c2.78-1.93,4.17-4.55,4.17-7.88
		C2011.38-958.68,2010.89-960.39,2009.93-961.76z"/>
</g>
<path class="st0" d="M1996.28-1182.88c-25.15-45.69-11.44-93.87-11.44-93.87c-33.76-8.15-35.67,0.35-50.2,16.29
	c-14.52,15.94-24.2,9.92-24.2,9.92c1.66,54.9,64.16,98.32,64.16,98.32l0.02,0.02c-7.61-2.45-15.73-3.78-24.16-3.78
	c-43.55,0-78.86,35.31-78.86,78.86c0,43.55,35.31,78.86,78.86,78.86c41.7,0,75.82-32.38,78.65-73.37l0.21,0.68
	C2032.99-1101.06,2021.43-1137.19,1996.28-1182.88z M2014.26-1138.96l-4.41,2.02l-5.17-11.29l4.41-2.02L2014.26-1138.96z
	 M1999.01-1170.44l5.8,10.98l-4.29,2.27l-5.8-10.98L1999.01-1170.44z M1994.19-1178.8l-4.41,2.01l-5.15-11.3l4.41-2.01
	L1994.19-1178.8z M1981.72-1210.85l3.75,11.84l-4.62,1.47l-3.75-11.84L1981.72-1210.85z M1974.63-1219.57l-1.42-12.34l4.82-0.55
	l1.42,12.34L1974.63-1219.57z M1975.25-1272.65l4.79,0.72l-1.33,8.83l-4.79-0.72L1975.25-1272.65z M1972.96-1254.47h4.85v12.42
	h-4.85V-1254.47z M1916.29-1243.86l4.77-0.85l1.57,8.79l-4.77,0.85L1916.29-1243.86z M1925.43-1213.74l-4.78-11.46l4.48-1.87
	l4.78,11.46L1925.43-1213.74z M1939.33-1191.78l-6.88-10.34l4.04-2.69l6.88,10.34L1939.33-1191.78z M1957.33-1171.23l-8.78-8.78
	l3.43-3.43l8.78,8.78L1957.33-1171.23z M1972.03-1157.74l-4.99-4.33l3.18-3.66l4.99,4.33L1972.03-1157.74z M1950.48-1031.18
	c-25.38,0-45.95-20.57-45.95-45.95c0-25.38,20.57-45.95,45.95-45.95c25.38,0,45.95,20.57,45.95,45.95
	C1996.42-1051.75,1975.85-1031.18,1950.48-1031.18z"/>
<circle class="st0" cx="1950.28" cy="-1077.27" r="8.46"/>
<g>
	<path class="st1" d="M1924.97-1042.23l25.05-24.76h-41.73C1910.76-1056.88,1916.78-1048.16,1924.97-1042.23z"/>
	<path class="st1" d="M1912.73-1098.68c-3.61,6.31-5.68,13.62-5.68,21.41c0,2.33,0.19,4.61,0.54,6.83h33.48L1912.73-1098.68z"/>
	<path class="st1" d="M1939.22-1119.06c-9.97,2.63-18.53,8.74-24.3,16.95l24.3,24.61V-1119.06z"/>
	<path class="st1" d="M1950.28-1120.5c-2.59,0-5.12,0.24-7.58,0.68v34.42l30.09-28.78
		C1966.23-1118.19,1958.53-1120.5,1950.28-1120.5z"/>
	<path class="st1" d="M1974.84-1112.84l-25.05,24.76h41.73C1989.05-1098.2,1983.03-1106.92,1974.84-1112.84z"/>
	<path class="st1" d="M1987.08-1056.39c3.61-6.31,5.68-13.62,5.68-21.41c0-2.33-0.19-4.61-0.54-6.83h-33.48L1987.08-1056.39z"/>
	<path class="st1" d="M1960.59-1036.01c9.97-2.63,18.53-8.74,24.3-16.95l-24.3-24.61V-1036.01z"/>
	<path class="st1" d="M1949.53-1034.58c2.59,0,5.12-0.24,7.58-0.68v-34.42l-30.09,28.78
		C1933.58-1036.89,1941.28-1034.58,1949.53-1034.58z"/>
</g>
<g>
	<path class="st0" d="M240.97,160.08h54.71v352.21h-60.66v-254.7l-76.67,93.78h-11.91l-77.41-94.16v255.08H8.37V160.08h54.71
		l88.95,110.9L240.97,160.08z"/>
	<path class="st0" d="M444.92,244.01c14.64,7.57,25.87,18.24,33.68,32.01c7.82,13.77,11.72,29.84,11.72,48.2
		c0,5.95-0.62,13.27-1.86,21.96h-135.1c1.73,9.43,6.82,17.06,15.26,22.89c8.43,5.83,19.22,8.74,32.38,8.74
		c9.18,0,18.11-1.36,26.8-4.09c8.68-2.73,16.13-6.57,22.33-11.54l30.52,32.75c-10.42,9.68-22.76,17.12-37.03,22.33
		c-14.27,5.21-29.46,7.81-45.59,7.81c-21.34,0-39.82-3.91-55.45-11.72c-15.63-7.81-27.67-18.91-36.1-33.31
		c-8.44-14.39-12.66-31.39-12.66-50.99c0-18.85,4.15-35.6,12.47-50.24c8.31-14.64,19.91-25.99,34.8-34.05
		c14.89-8.06,32.13-12.09,51.73-12.09C412.91,232.66,430.28,236.44,444.92,244.01z M366.2,287.74
		c-7.32,5.95-11.48,14.27-12.47,24.94h81.13c-0.74-10.67-4.65-18.98-11.72-24.94c-7.07-5.96-16.56-8.93-28.47-8.93
		C383.01,278.81,373.52,281.78,366.2,287.74z"/>
	<path class="st0" d="M653.51,254.99c13.52,14.89,20.28,35.48,20.28,61.78V420.6h-58.43V320.12c0-11.91-2.98-21.21-8.93-27.91
		c-5.95-6.7-14.14-10.05-24.56-10.05c-11.41,0-20.6,3.85-27.54,11.54c-6.95,7.69-10.42,17.74-10.42,30.14v96.76h-58.43V236.75h50.61
		l3.72,21.59c7.19-8.19,15.82-14.51,25.86-18.98c10.05-4.46,21.15-6.7,33.31-6.7C621.81,232.66,639.98,240.1,653.51,254.99z"/>
	<path class="st0" d="M1008.36,236.75h63.27L956.06,512.29h-62.15l36.67-94.3l-71.45-181.24h62.9l21.21,58.06l20.09,59.91
		l21.59-59.91L1008.36,236.75z"/>
	<g>
		<path class="st2" d="M360.8,483.61c-3.26-1.39-7.82-2.68-13.67-3.85c-4.74-0.95-8.44-1.97-11.12-3.05
			c-2.67-1.09-4.6-2.4-5.77-3.93c-1.17-1.53-1.76-3.47-1.76-5.81c0-3.57,1.66-6.42,4.97-8.57c3.31-2.15,7.73-3.22,13.25-3.22
			c3.79,0,7.29,0.66,10.49,1.97c3.2,1.31,5.87,3.16,7.99,5.56l2.34-2.59c-2.45-2.73-5.46-4.81-9.03-6.23
			c-3.57-1.42-7.47-2.13-11.7-2.13c-4.35,0-8.18,0.62-11.5,1.88c-3.32,1.26-5.88,3.04-7.69,5.35c-1.81,2.31-2.72,4.98-2.72,7.99
			s0.7,5.52,2.09,7.52c1.39,2.01,3.64,3.71,6.73,5.1c3.09,1.39,7.32,2.62,12.67,3.68c5.24,1,9.27,2.06,12.08,3.18
			c2.81,1.11,4.82,2.45,6.02,4.01c1.2,1.56,1.8,3.54,1.8,5.94c0,3.79-1.71,6.79-5.14,8.99c-3.43,2.2-8.1,3.3-14.01,3.3
			c-4.29,0-8.42-0.92-12.37-2.76c-3.96-1.84-6.89-4.21-8.78-7.11l-2.51,2.51c2.4,3.29,5.74,5.92,10.03,7.9
			c4.29,1.98,8.83,2.97,13.63,2.97c7.02,0,12.58-1.42,16.68-4.26c4.1-2.85,6.15-6.72,6.15-11.62c0-3.07-0.71-5.6-2.13-7.61
			C366.4,486.71,364.06,485.01,360.8,483.61z"/>
		<polygon class="st2" points="404.9,456.36 426.48,456.36 426.48,511.29 430.07,511.29 430.07,456.36 451.64,456.36 451.64,452.76 
			404.9,452.76 		"/>
		<path class="st2" d="M532.75,488.88c0,3.9-0.81,7.34-2.42,10.32c-1.62,2.98-3.88,5.31-6.77,6.99c-2.9,1.67-6.22,2.51-9.95,2.51
			c-3.74,0-7.05-0.84-9.95-2.51c-2.9-1.67-5.16-4-6.77-6.99c-1.62-2.98-2.43-6.42-2.43-10.32v-36.12h-3.68v36.12
			c0,4.57,0.96,8.63,2.89,12.17s4.61,6.29,8.07,8.23c3.46,1.96,7.41,2.93,11.87,2.93c4.46,0,8.42-0.97,11.87-2.93
			c3.46-1.95,6.14-4.69,8.07-8.23c1.92-3.54,2.88-7.59,2.88-12.17v-36.12h-3.68V488.88z"/>
		<path class="st2" d="M617.78,456.48c-4.52-2.48-9.67-3.72-15.47-3.72h-19.56v58.53h19.56c5.8,0,10.95-1.24,15.47-3.72
			c4.52-2.48,8.03-5.94,10.54-10.37c2.51-4.43,3.76-9.49,3.76-15.17c0-5.69-1.25-10.75-3.76-15.18
			C625.81,462.42,622.3,458.96,617.78,456.48z M625.1,495.32c-2.2,3.9-5.28,6.94-9.24,9.12c-3.96,2.17-8.47,3.26-13.55,3.26h-15.89
			v-51.34h15.89c5.02,0,9.5,1.09,13.46,3.26c3.96,2.17,7.05,5.21,9.28,9.11c2.23,3.9,3.35,8.34,3.35,13.3S627.3,491.42,625.1,495.32
			z"/>
		<rect x="675.23" y="452.76" class="st2" width="3.68" height="58.53"/>
		<path class="st2" d="M766.82,455.6c-4.49-2.56-9.57-3.85-15.26-3.85c-5.68,0-10.77,1.28-15.26,3.85
			c-4.49,2.56-7.98,6.14-10.49,10.74c-2.51,4.6-3.76,9.83-3.76,15.68c0,5.85,1.26,11.08,3.76,15.68c2.51,4.6,6.01,8.18,10.49,10.75
			c4.49,2.56,9.58,3.85,15.26,3.85c5.69,0,10.77-1.28,15.26-3.85s7.99-6.15,10.49-10.75c2.51-4.6,3.76-9.83,3.76-15.68
			c0-5.85-1.25-11.08-3.76-15.68C774.81,461.75,771.31,458.17,766.82,455.6z M774.1,495.9c-2.2,4.07-5.27,7.23-9.2,9.49
			c-3.93,2.26-8.38,3.39-13.34,3.39c-4.96,0-9.41-1.13-13.33-3.39c-3.93-2.26-7-5.42-9.2-9.49c-2.2-4.07-3.3-8.7-3.3-13.88
			c0-5.18,1.1-9.81,3.3-13.88c2.2-4.07,5.27-7.23,9.2-9.49c3.93-2.26,8.37-3.38,13.33-3.38c4.96,0,9.41,1.13,13.34,3.38
			c3.93,2.26,6.99,5.42,9.2,9.49c2.2,4.07,3.3,8.7,3.3,13.88C777.4,487.21,776.3,491.84,774.1,495.9z"/>
		<path class="st2" d="M864.31,488.71c-1.42-2-3.76-3.71-7.02-5.1c-3.26-1.39-7.82-2.68-13.67-3.85c-4.74-0.95-8.44-1.97-11.12-3.05
			c-2.67-1.09-4.6-2.4-5.77-3.93c-1.17-1.53-1.76-3.47-1.76-5.81c0-3.57,1.66-6.42,4.98-8.57c3.32-2.15,7.73-3.22,13.25-3.22
			c3.79,0,7.29,0.66,10.49,1.97s5.87,3.16,7.99,5.56l2.34-2.59c-2.45-2.73-5.47-4.81-9.03-6.23c-3.57-1.42-7.47-2.13-11.71-2.13
			c-4.35,0-8.18,0.62-11.5,1.88c-3.31,1.26-5.88,3.04-7.69,5.35c-1.81,2.31-2.72,4.98-2.72,7.99s0.7,5.52,2.09,7.52
			c1.39,2.01,3.64,3.71,6.73,5.1c3.09,1.39,7.32,2.62,12.67,3.68c5.24,1,9.27,2.06,12.08,3.18c2.82,1.11,4.82,2.45,6.02,4.01
			c1.2,1.56,1.8,3.54,1.8,5.94c0,3.79-1.71,6.79-5.14,8.99c-3.43,2.2-8.1,3.3-14.01,3.3c-4.29,0-8.42-0.92-12.37-2.76
			c-3.96-1.84-6.88-4.21-8.78-7.11l-2.51,2.51c2.4,3.29,5.74,5.92,10.03,7.9c4.29,1.98,8.83,2.97,13.63,2.97
			c7.03,0,12.59-1.42,16.68-4.26c4.1-2.85,6.15-6.72,6.15-11.62C866.45,493.26,865.73,490.72,864.31,488.71z"/>
	</g>
	<path class="st0" d="M844.19,162.57c-37.09-67.4-16.87-138.45-16.87-138.45c-49.79-12.02-52.61,0.52-74.03,24.03
		c-21.42,23.51-35.69,14.63-35.69,14.63c2.44,80.98,94.63,145.01,94.63,145.01l0.03,0.02c-11.23-3.61-23.2-5.58-35.63-5.58
		c-64.24,0-116.31,52.07-116.31,116.31c0,64.24,52.07,116.31,116.31,116.31c61.51,0,111.83-47.76,116-108.21l0.31,1.01
		C898.33,283.26,881.28,229.97,844.19,162.57z M870.7,227.35l-6.5,2.97l-7.62-16.65l6.5-2.97L870.7,227.35z M848.2,180.93
		l8.56,16.19l-6.32,3.34l-8.56-16.19L848.2,180.93z M841.1,168.59l-6.51,2.97l-7.6-16.66l6.51-2.97L841.1,168.59z M822.71,121.32
		l5.53,17.46l-6.82,2.16l-5.53-17.46L822.71,121.32z M812.25,108.46l-2.09-18.19l7.1-0.82l2.09,18.19L812.25,108.46z M813.16,30.17
		l7.07,1.06l-1.96,13.03l-7.07-1.06L813.16,30.17z M809.79,56.98h7.15v18.31h-7.15V56.98z M726.21,72.63l7.04-1.26l2.32,12.97
		l-7.04,1.26L726.21,72.63z M739.68,117.05l-7.05-16.9l6.6-2.75l7.05,16.9L739.68,117.05z M760.19,149.45l-10.15-15.25l5.95-3.96
		l10.15,15.25L760.19,149.45z M786.73,179.75l-12.95-12.95l5.06-5.06l12.95,12.95L786.73,179.75z M808.41,199.65l-7.35-6.38
		l4.69-5.4l7.35,6.38L808.41,199.65z M776.63,386.32c-37.43,0-67.77-30.34-67.77-67.77s30.34-67.77,67.77-67.77
		s67.77,30.34,67.77,67.77S814.05,386.32,776.63,386.32z"/>
	<circle class="st0" cx="776.33" cy="318.34" r="12.47"/>
	<g>
		<path class="st1" d="M739,370.02l36.94-36.52H714.4C718.04,348.42,726.93,361.28,739,370.02z"/>
		<path class="st1" d="M720.96,286.76c-5.32,9.31-8.38,20.09-8.38,31.58c0,3.43,0.28,6.79,0.8,10.08h49.38L720.96,286.76z"/>
		<path class="st1" d="M760.02,256.7c-14.71,3.88-27.32,12.89-35.85,25l35.85,36.3V256.7z"/>
		<path class="st1" d="M776.33,254.58c-3.82,0-7.55,0.35-11.18,1v50.76l44.38-42.44C799.86,257.99,788.5,254.58,776.33,254.58z"/>
		<path class="st1" d="M812.56,265.88l-36.94,36.52l61.54,0C833.52,287.47,824.63,274.62,812.56,265.88z"/>
		<path class="st1" d="M830.61,349.13c5.32-9.31,8.38-20.09,8.38-31.58c0-3.43-0.28-6.79-0.8-10.08h-49.38L830.61,349.13z"/>
		<path class="st1" d="M791.55,379.19c14.71-3.88,27.32-12.89,35.85-25l-35.85-36.3V379.19z"/>
		<path class="st1" d="M775.23,381.31c3.82,0,7.55-0.35,11.18-1v-50.76l-44.38,42.44C751.7,377.9,763.06,381.31,775.23,381.31z"/>
	</g>
</g>
<g>
	<path class="st0" d="M337.26-1184.57h37.09v238.8h-41.13v-172.69l-51.98,63.58h-8.08l-52.48-63.84v172.94h-41.13v-238.8h37.09
		l60.31,75.19L337.26-1184.57z"/>
	<path class="st0" d="M475.53-1127.67c9.92,5.13,17.54,12.37,22.84,21.7c5.3,9.34,7.95,20.23,7.95,32.68c0,4.04-0.42,9-1.26,14.89
		h-91.6c1.18,6.4,4.63,11.57,10.35,15.52c5.72,3.95,13.03,5.93,21.95,5.93c6.22,0,12.28-0.92,18.17-2.78
		c5.89-1.85,10.93-4.46,15.14-7.82l20.69,22.2c-7.06,6.56-15.43,11.61-25.11,15.14c-9.68,3.53-19.98,5.3-30.91,5.3
		c-14.47,0-27-2.65-37.6-7.95c-10.6-5.3-18.76-12.82-24.48-22.58c-5.72-9.76-8.58-21.28-8.58-34.57c0-12.78,2.82-24.14,8.45-34.06
		c5.63-9.92,13.5-17.62,23.59-23.09c10.09-5.46,21.78-8.2,35.07-8.2C453.83-1135.36,465.61-1132.8,475.53-1127.67z M422.17-1098.02
		c-4.96,4.04-7.78,9.68-8.45,16.91h55.01c-0.5-7.23-3.15-12.87-7.95-16.91c-4.79-4.04-11.23-6.06-19.3-6.06
		C433.56-1104.08,427.13-1102.06,422.17-1098.02z"/>
	<path class="st0" d="M616.96-1120.23c9.17,10.09,13.75,24.06,13.75,41.89v70.4H591.1v-68.13c0-8.08-2.02-14.38-6.06-18.93
		c-4.04-4.54-9.59-6.81-16.65-6.81c-7.74,0-13.97,2.61-18.67,7.82c-4.71,5.22-7.07,12.03-7.07,20.44v65.61h-39.62v-124.65h34.32
		l2.52,14.64c4.88-5.55,10.72-9.84,17.54-12.87c6.81-3.03,14.34-4.54,22.58-4.54C595.47-1135.36,607.79-1130.32,616.96-1120.23z"/>
	<path class="st0" d="M857.55-1132.59h42.9l-78.36,186.82h-42.14l24.86-63.94l-48.45-122.88h42.64l14.38,39.36l13.62,40.62
		l14.64-40.62L857.55-1132.59z"/>
	<g>
		<path class="st1" d="M418.5-965.21c-2.21-0.94-5.3-1.82-9.27-2.61c-3.21-0.64-5.73-1.33-7.54-2.07c-1.81-0.74-3.12-1.62-3.91-2.67
			c-0.79-1.04-1.19-2.35-1.19-3.94c0-2.42,1.12-4.35,3.37-5.81c2.25-1.46,5.24-2.18,8.99-2.18c2.57,0,4.94,0.45,7.11,1.33
			c2.17,0.89,3.98,2.15,5.41,3.77l1.59-1.76c-1.66-1.85-3.7-3.26-6.12-4.22c-2.42-0.96-5.07-1.44-7.94-1.44
			c-2.95,0-5.55,0.42-7.8,1.27c-2.25,0.85-3.99,2.06-5.21,3.63c-1.23,1.57-1.84,3.37-1.84,5.41s0.47,3.74,1.42,5.1
			c0.94,1.36,2.46,2.52,4.56,3.46c2.1,0.94,4.96,1.78,8.59,2.49c3.55,0.68,6.28,1.4,8.19,2.15c1.91,0.76,3.27,1.66,4.08,2.72
			c0.81,1.06,1.22,2.4,1.22,4.02c0,2.57-1.16,4.6-3.49,6.1c-2.33,1.49-5.49,2.24-9.5,2.24c-2.91,0-5.71-0.62-8.39-1.87
			c-2.68-1.25-4.67-2.85-5.95-4.82l-1.7,1.7c1.62,2.23,3.89,4.02,6.8,5.36c2.91,1.34,5.99,2.01,9.24,2.01
			c4.76,0,8.53-0.96,11.31-2.89c2.78-1.93,4.17-4.55,4.17-7.88c0-2.08-0.48-3.8-1.45-5.16C422.3-963.12,420.71-964.27,418.5-965.21z
			"/>
		<polygon class="st1" points="448.4,-983.7 463.03,-983.7 463.03,-946.45 465.47,-946.45 465.47,-983.7 480.09,-983.7 
			480.09,-986.13 448.4,-986.13 		"/>
		<path class="st1" d="M535.08-961.64c0,2.65-0.55,4.98-1.64,7c-1.1,2.02-2.63,3.6-4.59,4.74c-1.97,1.13-4.22,1.7-6.75,1.7
			c-2.53,0-4.78-0.57-6.75-1.7c-1.97-1.13-3.5-2.71-4.59-4.74c-1.1-2.02-1.64-4.35-1.64-7v-24.49h-2.5v24.49
			c0,3.1,0.65,5.85,1.96,8.25s3.13,4.26,5.47,5.58c2.34,1.33,5.03,1.98,8.05,1.98s5.71-0.66,8.05-1.98
			c2.34-1.32,4.17-3.18,5.47-5.58c1.3-2.4,1.96-5.15,1.96-8.25v-24.49h-2.5V-961.64z"/>
		<path class="st1" d="M592.74-983.61c-3.06-1.68-6.56-2.52-10.49-2.52h-13.26v39.68h13.26c3.93,0,7.43-0.84,10.49-2.52
			c3.06-1.68,5.44-4.03,7.15-7.03c1.7-3.01,2.55-6.44,2.55-10.29c0-3.86-0.85-7.29-2.55-10.29
			C598.18-979.58,595.8-981.93,592.74-983.61z M597.7-957.28c-1.49,2.65-3.58,4.71-6.26,6.18c-2.68,1.47-5.74,2.21-9.18,2.21h-10.77
			v-34.81h10.77c3.4,0,6.44,0.74,9.13,2.21c2.68,1.47,4.78,3.53,6.29,6.18c1.51,2.65,2.27,5.65,2.27,9.02
			C599.94-962.93,599.19-959.92,597.7-957.28z"/>
		<rect x="631.68" y="-986.13" class="st1" width="2.49" height="39.68"/>
		<path class="st1" d="M693.79-984.2c-3.04-1.74-6.49-2.61-10.35-2.61c-3.85,0-7.3,0.87-10.35,2.61c-3.04,1.74-5.41,4.17-7.11,7.28
			c-1.7,3.12-2.55,6.66-2.55,10.63c0,3.97,0.85,7.51,2.55,10.63c1.7,3.12,4.07,5.55,7.11,7.29s6.49,2.61,10.35,2.61
			c3.86,0,7.3-0.87,10.35-2.61s5.41-4.17,7.11-7.29c1.7-3.12,2.55-6.66,2.55-10.63c0-3.97-0.85-7.51-2.55-10.63
			C699.2-980.04,696.83-982.47,693.79-984.2z M698.72-956.88c-1.49,2.76-3.57,4.9-6.24,6.44s-5.68,2.3-9.04,2.3s-6.38-0.77-9.04-2.3
			c-2.67-1.53-4.74-3.68-6.24-6.44c-1.49-2.76-2.24-5.9-2.24-9.41c0-3.52,0.74-6.65,2.24-9.41c1.49-2.76,3.57-4.9,6.24-6.44
			c2.66-1.53,5.68-2.29,9.04-2.29s6.38,0.76,9.04,2.29c2.67,1.53,4.74,3.68,6.24,6.44c1.49,2.76,2.24,5.9,2.24,9.41
			C700.96-962.78,700.21-959.64,698.72-956.88z"/>
		<path class="st1" d="M759.89-961.76c-0.96-1.36-2.55-2.51-4.76-3.46c-2.21-0.94-5.3-1.82-9.27-2.61
			c-3.21-0.64-5.72-1.33-7.54-2.07c-1.81-0.74-3.12-1.62-3.91-2.67c-0.79-1.04-1.19-2.35-1.19-3.94c0-2.42,1.12-4.35,3.37-5.81
			c2.25-1.46,5.24-2.18,8.98-2.18c2.57,0,4.94,0.45,7.11,1.33c2.17,0.89,3.98,2.15,5.41,3.77l1.59-1.76
			c-1.66-1.85-3.71-3.26-6.12-4.22c-2.42-0.96-5.07-1.44-7.94-1.44c-2.95,0-5.55,0.42-7.79,1.27c-2.25,0.85-3.99,2.06-5.21,3.63
			c-1.23,1.57-1.84,3.37-1.84,5.41s0.47,3.74,1.42,5.1c0.94,1.36,2.47,2.52,4.56,3.46c2.1,0.94,4.96,1.78,8.59,2.49
			c3.55,0.68,6.28,1.4,8.19,2.15c1.91,0.76,3.27,1.66,4.08,2.72c0.81,1.06,1.22,2.4,1.22,4.02c0,2.57-1.16,4.6-3.48,6.1
			c-2.33,1.49-5.49,2.24-9.5,2.24c-2.91,0-5.71-0.62-8.39-1.87c-2.68-1.25-4.67-2.85-5.95-4.82l-1.7,1.7
			c1.62,2.23,3.89,4.02,6.8,5.36c2.91,1.34,5.99,2.01,9.24,2.01c4.76,0,8.53-0.96,11.31-2.89c2.78-1.93,4.17-4.55,4.17-7.88
			C761.33-958.68,760.85-960.39,759.89-961.76z"/>
	</g>
	<path class="st0" d="M746.24-1182.88c-25.15-45.69-11.44-93.87-11.44-93.87c-33.76-8.15-35.67,0.35-50.2,16.29
		c-14.52,15.94-24.2,9.92-24.2,9.92c1.66,54.9,64.16,98.32,64.16,98.32l0.02,0.02c-7.61-2.45-15.73-3.78-24.16-3.78
		c-43.55,0-78.86,35.31-78.86,78.86c0,43.55,35.31,78.86,78.86,78.86c41.7,0,75.82-32.38,78.65-73.37l0.21,0.68
		C782.95-1101.06,771.39-1137.19,746.24-1182.88z M764.22-1138.96l-4.41,2.02l-5.17-11.29l4.41-2.02L764.22-1138.96z
		 M748.96-1170.44l5.8,10.98l-4.29,2.27l-5.8-10.98L748.96-1170.44z M744.15-1178.8l-4.41,2.01l-5.15-11.3l4.41-2.01L744.15-1178.8z
		 M731.68-1210.85l3.75,11.84l-4.62,1.47l-3.75-11.84L731.68-1210.85z M724.59-1219.57l-1.42-12.34l4.82-0.55l1.42,12.34
		L724.59-1219.57z M725.21-1272.65l4.79,0.72l-1.33,8.83l-4.79-0.72L725.21-1272.65z M722.92-1254.47h4.85v12.42h-4.85V-1254.47z
		 M666.25-1243.86l4.77-0.85l1.57,8.79l-4.77,0.85L666.25-1243.86z M675.39-1213.74l-4.78-11.46l4.48-1.87l4.78,11.46
		L675.39-1213.74z M689.29-1191.78l-6.88-10.34l4.04-2.69l6.88,10.34L689.29-1191.78z M707.28-1171.23l-8.78-8.78l3.43-3.43
		l8.78,8.78L707.28-1171.23z M721.98-1157.74l-4.99-4.33l3.18-3.66l4.99,4.33L721.98-1157.74z M700.43-1031.18
		c-25.38,0-45.95-20.57-45.95-45.95c0-25.38,20.57-45.95,45.95-45.95s45.95,20.57,45.95,45.95
		C746.38-1051.75,725.81-1031.18,700.43-1031.18z"/>
	<circle class="st0" cx="700.24" cy="-1077.27" r="8.46"/>
	<g>
		<path class="st1" d="M674.92-1042.23l25.05-24.76h-41.73C660.71-1056.88,666.74-1048.16,674.92-1042.23z"/>
		<path class="st1" d="M662.69-1098.68c-3.61,6.31-5.68,13.62-5.68,21.41c0,2.33,0.19,4.61,0.54,6.83h33.48L662.69-1098.68z"/>
		<path class="st1" d="M689.17-1119.06c-9.97,2.63-18.53,8.74-24.3,16.95l24.3,24.61V-1119.06z"/>
		<path class="st1" d="M700.24-1120.5c-2.59,0-5.12,0.24-7.58,0.68v34.42l30.09-28.78C716.19-1118.19,708.48-1120.5,700.24-1120.5z"
			/>
		<path class="st1" d="M724.8-1112.84l-25.05,24.76h41.73C739.01-1098.2,732.98-1106.92,724.8-1112.84z"/>
		<path class="st1" d="M737.03-1056.39c3.61-6.31,5.68-13.62,5.68-21.41c0-2.33-0.19-4.61-0.54-6.83h-33.48L737.03-1056.39z"/>
		<path class="st1" d="M710.55-1036.01c9.97-2.63,18.53-8.74,24.3-16.95l-24.3-24.61V-1036.01z"/>
		<path class="st1" d="M699.49-1034.58c2.59,0,5.12-0.24,7.58-0.68v-34.42l-30.09,28.78
			C683.53-1036.89,691.24-1034.58,699.49-1034.58z"/>
	</g>
</g>
</svg>
